# xmcd
#
# Track frame offsets:
#	150
#	13390
#	24360
#	54561
#	70720
#	119309
#	121740
#	146864
#	165333
#	171041
#	190715
#	219931
#	237882
#
# Disc length: 3417 seconds
# Revision: 2
# Processed by: cddbd v1.5.2PL0 Copyright (c) Steve Scherf et al.
# Submitted via: dBpowerAMP V12.0
#
DISCID=a90d570d
DTITLE=Carla Bozulich - Red Headed Stranger
DYEAR=2003
DGENRE=Country
TTITLE0=Time of the Preacher
TTITLE1=I Couldn't Believe It Was True
TTITLE2=Medley: Time of the Preacher - Blue Rock Montana - Red Headed Stranger
TTITLE3=Blue Eyes Crying in the Rain
TTITLE4=Red Headed Stranger
TTITLE5=Time of the Preacher Theme
TTITLE6=Just As I Am
TTITLE7=Denver - O'er the Waves
TTITLE8=Down Yonder
TTITLE9=Can I Sleep in Your Arms?
TTITLE10=Remember Me
TTITLE11=Hands on the Wheel
TTITLE12=Bandera
EXTD=
EXTT0=
EXTT1=
EXTT2=
EXTT3=
EXTT4=
EXTT5=
EXTT6=
EXTT7=
EXTT8=
EXTT9=
EXTT10=
EXTT11=
EXTT12=
PLAYORDER=
